<svg xmlns="http://www.w3.org/2000/svg" viewBox="0 0 48 48" role="img" aria-labelledby="title desc">
  <title id="title">Global markets icon</title>
  <desc id="desc">Line icon of a globe with gold meridians.</desc>
  <g fill="none" stroke-linecap="round" stroke-linejoin="round">
    <circle cx="24" cy="24" r="17" stroke="#0D1B33" stroke-width="2.1"/>
    <path d="M7.5 24h33M24 7c4.3 4.4 6.4 10.1 6.4 17S28.3 36.6 24 41M24 7c-4.3 4.4-6.4 10.1-6.4 17S19.7 36.6 24 41" stroke="#0D1B33" stroke-width="1.7"/>
    <path d="M12 15.4c7.5 3 16.6 3 24 0M12 32.6c7.5-3 16.6-3 24 0" stroke="#2F6FCE" stroke-width="1.4"/>
    <path d="M33.7 10.2 38 6.8M38.2 12.2l4.2-3.4M34 10.2c2.7.2 4.6 1 6.1 2.5-.7-2.3-.6-4.4.2-6.5" stroke="#D4AF37" stroke-width="1.6"/>
  </g>
</svg>
