<svg xmlns="http://www.w3.org/2000/svg" width="24" height="24" viewBox="0 0 24 24" fill="none" role="img" aria-labelledby="title desc">
  <title id="title">Education icon</title>
  <desc id="desc">Book and learning icon for education menu item</desc>
  <path d="M5 6.2c0-.8.6-1.4 1.4-1.4H11c.9 0 1.7.5 2 1.3.3-.8 1.1-1.3 2-1.3h2.6c.8 0 1.4.6 1.4 1.4v12.3c0 .5-.5.8-.9.6-.9-.4-2-.7-3.1-.7-1.2 0-2.2.3-3 .9-1-.6-2-.9-3.2-.9-1 0-2.1.3-3 .7-.4.2-.8-.1-.8-.6V6.2z" stroke="#0A1730" stroke-width="1.7" stroke-linejoin="round"/>
  <path d="M12 6.3v13" stroke="#0A1730" stroke-width="1.5" stroke-linecap="round"/>
  <path d="M15.2 8.4h1.9M15.2 11h1.9" stroke="#D9B833" stroke-width="1.5" stroke-linecap="round"/>
</svg>
